<?xml version="1.0" encoding="utf-8"?>
<!-- Generator: Adobe Illustrator 16.0.0, SVG Export Plug-In . SVG Version: 6.00 Build 0)  -->
<!DOCTYPE svg PUBLIC "-//W3C//DTD SVG 1.1//EN" "http://www.w3.org/Graphics/SVG/1.1/DTD/svg11.dtd">
<svg version="1.1" id="Layer_1" xmlns="http://www.w3.org/2000/svg" xmlns:xlink="http://www.w3.org/1999/xlink" x="0px" y="0px"
	 width="349.499px" height="166.393px" viewBox="0 0 349.499 166.393" enable-background="new 0 0 349.499 166.393"
	 xml:space="preserve">
<g>
	<path fill="#010101" d="M67.62,127.892c-0.101,0-0.195,0.025-0.295,0.03c-0.098-0.004-0.191-0.03-0.291-0.03H44.509
		c-3.621,0-6.588,2.964-6.588,6.588s2.967,6.587,6.588,6.587h9.28c-0.308,1.027-0.946,2.311-1.861,3.648
		c-2.582,3.771-8.731,7.959-14.34,7.959c-14.45,0-21.12-11.661-21.12-26.045c0-14.389,9.511-25.508,23.962-25.508
		c4.658,0,8.204,0.76,11.739,2.793c1.277,0.732,2.565,1.569,3.839,2.384l3.976,3.061c2.87,2.211,7.025,1.673,9.239-1.197
		c1.991-2.586,1.446-6.188-0.433-8.514c-3.025-3.668-6.595-5.949-6.595-5.949c-6.365-4.281-14.043-6.781-22.303-6.781
		C17.859,86.918,0,104.695,0,126.629c0,21.932,13.101,39.71,35.133,39.71c8.852,0,19.501-3.457,25.9-12.649v6.111
		c0,3.624,2.963,6.591,6.587,6.591s6.588-2.967,6.588-6.591v-25.322C74.208,130.855,71.244,127.892,67.62,127.892"/>
	<path fill="#010101" d="M124.2,149.803c-1.036,0.438-6.984,3.384-15.17,3.384c-12.382,0-13.662-10.498-13.686-12.006
		c-0.024-1.526,0.064-1.418,0.064-1.418h29.993c9.156,0,8.24-9.004,8.24-9.004c0-11.514-6.985-25.853-26.084-25.853
		s-25.513,15.599-26.55,21.547c-1.037,5.948-4.118,25.751,12.035,35.574c16.152,9.821,32.523,0,32.523,0
		c5.034-2.387,8.786-7.027,6.179-11.001C129.626,147.799,125.237,149.367,124.2,149.803 M95.279,128.767
		c0-6.855,5.485-11.72,12.251-11.72s12.25,4.864,12.25,11.72c0,0.191-0.148,0.246-0.148,0.246H95.479
		C95.217,129.013,95.279,128.767,95.279,128.767"/>
	<path fill="#020202" d="M172.184,156.469c-0.548-0.899-1.29-1.582-2.229-2.053c-0.668-0.312-1.353-0.527-2.058-0.647
		c-0.701-0.117-1.545-0.212-2.521-0.292c-0.979-0.037-1.783-0.216-2.408-0.53c-0.628-0.311-1.125-0.702-1.498-1.173
		c-0.372-0.468-0.635-1.027-0.793-1.673c-0.157-0.645-0.233-1.319-0.233-2.025v-30.328h2.791c3.217,0,5.849-2.632,5.849-5.849
		v-0.221c0-3.217-2.632-5.85-5.849-5.85h-2.812V94.596c0-4.175-3.416-7.591-7.591-7.591c-4.175,0-7.591,3.416-7.591,7.591v11.232
		h-2.792c-3.217,0-5.849,2.633-5.849,5.85v0.221c0,3.217,2.632,5.849,5.849,5.849h2.733v31.15c0,2.233,0.321,4.392,0.968,6.486
		c0.647,2.093,1.681,3.964,3.113,5.607c1.425,1.642,3.256,2.952,5.488,3.933c2.229,0.979,4.929,1.469,8.1,1.469h0.822
		c1.487,0,2.737-0.092,3.756-0.267c1.016-0.177,1.857-0.439,2.525-0.793c0.898-0.469,1.633-1.151,2.199-2.055
		c0.566-0.897,0.852-2.035,0.852-3.405C173.006,158.504,172.731,157.37,172.184,156.469"/>
	<path fill="#020202" d="M209.045,156.469c-0.548-0.899-1.29-1.582-2.229-2.053c-0.668-0.312-1.353-0.527-2.058-0.647
		c-0.701-0.117-1.545-0.212-2.521-0.292c-0.979-0.037-1.783-0.216-2.408-0.53c-0.628-0.311-1.125-0.702-1.498-1.173
		c-0.372-0.468-0.635-1.027-0.793-1.673c-0.157-0.645-0.233-1.319-0.233-2.025v-30.328h2.791c3.218,0,5.85-2.632,5.85-5.849v-0.221
		c0-3.217-2.632-5.85-5.85-5.85h-2.812V94.596c0-4.175-3.416-7.591-7.591-7.591s-7.591,3.416-7.591,7.591v11.232h-2.792
		c-3.218,0-5.85,2.633-5.85,5.85v0.221c0,3.217,2.632,5.849,5.85,5.849h2.732v31.15c0,2.233,0.322,4.392,0.968,6.486
		c0.647,2.093,1.682,3.964,3.113,5.607c1.425,1.642,3.256,2.952,5.488,3.933c2.229,0.979,4.929,1.469,8.1,1.469h0.822
		c1.488,0,2.737-0.092,3.757-0.267c1.015-0.177,1.856-0.439,2.524-0.793c0.898-0.469,1.634-1.151,2.199-2.055
		c0.566-0.897,0.852-2.035,0.852-3.405C209.867,158.504,209.593,157.37,209.045,156.469"/>
	<path fill="#010101" d="M340.455,66.854c-4.993,0-9.041,4.047-9.042,9.042c0.001,4.993,4.049,9.042,9.042,9.042
		c4.995,0,9.044-4.049,9.044-9.042C349.499,70.901,345.45,66.854,340.455,66.854 M340.455,83.473
		c-4.184-0.009-7.569-3.393-7.575-7.577c0.006-4.182,3.392-7.569,7.575-7.576c4.186,0.007,7.568,3.394,7.577,7.576
		C348.023,80.08,344.641,83.464,340.455,83.473 M342.952,76.998c-0.27-0.289-0.609-0.552-1.022-0.793
		c0.83-0.119,1.452-0.41,1.87-0.873c0.416-0.462,0.625-1.046,0.625-1.755c0-0.558-0.136-1.054-0.413-1.487
		c-0.274-0.435-0.641-0.737-1.099-0.906c-0.456-0.169-1.191-0.255-2.2-0.255h-4.014v9.446h1.907v-3.944h0.386
		c0.439,0,0.759,0.035,0.962,0.106c0.2,0.071,0.392,0.202,0.571,0.394c0.181,0.19,0.516,0.655,1.008,1.387l1.378,2.057h2.279
		l-1.153-1.843C343.583,77.797,343.221,77.285,342.952,76.998 M340.017,74.925h-1.41v-2.396h1.488c0.772,0,1.237,0.01,1.392,0.031
		c0.309,0.051,0.549,0.175,0.719,0.371c0.17,0.196,0.253,0.451,0.253,0.769c0,0.283-0.064,0.519-0.192,0.708
		c-0.128,0.19-0.308,0.321-0.536,0.401C341.503,74.885,340.932,74.925,340.017,74.925"/>
	<path fill="#FBB725" d="M326.842,152.978c0,7.379-6.037,13.414-13.413,13.414h-72.537c-7.389,0-13.418-6.035-13.418-13.414V80.429
		c0-7.379,6.029-13.405,13.418-13.405h72.537c7.376,0,13.413,6.026,13.413,13.405V152.978z"/>
	<path fill="#010101" d="M256.32,96.12l1.149-0.275l0.208-1.062l0.432,0.021c0.798,6.594,1.384,10.855,1.393,14.785
		c0.043,19.062-4.123,37.187-4.32,56.805h18.624c1.719-4.713,2.986-10.543,5.178-14.783c1.819,4.295,3.189,9.711,4.233,14.783
		h19.429c-0.961-13.468-1.353-22.705-3.764-39.525c1.459,0.047,2.248-0.242,3.294-0.607c-3.55-11.516-4.885-44.015-1.237-61.027
		c0.723-1.948,4.128-10.54,4.128-16.472c0,0,0.583-2.195,1.241-4.731V44.01c0.114-0.291,2.172-5.294,3.634-10.512
		c1.385-4.878,2.185-10.025,2.185-10.025l1.319-3.961c0,0,1.011-1.003,1.835-2.222c0.798-1.147,1.41-2.51,1.41-2.51
		s0.362-0.514,1.169-1.014c0.538-0.347,1.454-0.603,1.454-0.603l4.054-0.736c0,0,1.326-0.223,1.114-0.931
		c-0.204-0.712-2.104-0.631-2.104-0.631s-4.531,0.504-4.743,0.249c-0.217-0.26,5.074-4.075,5.074-4.075s1.408-1.169,0.923-1.985
		c-0.487-0.814-2.164,0.418-2.164,0.418s-5.151,3.531-5.562,3.555c-0.396,0.035,3.728-5.693,3.728-5.693s1.247-1.753,0.587-2.489
		c-0.66-0.722-1.889,0.835-1.889,0.835s-4.469,5.433-4.686,5.675c-0.231,0.259-0.604-0.056-0.86-0.371
		c-0.218-0.281-0.085-0.802-0.085-0.802l0.678-4.692c0,0,0.015-1.126-0.89-1.433c-0.948-0.331-1.339,0.877-1.339,0.877l-1.813,6.893
		c0,0-0.93,1.474-2.166,1.916c-0.947,0.339-2.272-0.338-2.272-0.338s-0.893-1.136-1.887-1.814c-0.623-0.412-1.52-0.486-1.52-0.486
		s-1.615-0.121-2.29,0.733c-0.301,0.39,0.834,0.897,0.834,0.897s1.278,0.649,2.021,1.511c0.489,0.563,0.551,1.477,0.551,1.477
		s-0.158,0.547,0.6,1.769c0.553,0.889,2.088,2.562,2.088,2.562s0.462,0.74,0.665,1.504l-0.054,1.871
		c-0.088,0.339-0.186,0.553-0.186,0.553l-3.392,8.883c0,0-1.344,2.667-2.698,5.821c-1.511,3.492-3.092,7.574-3.802,8.949
		l-0.057,0.294l-0.077,0.117c0,0-1.069,1.566-2.074,3.432c-1.005,1.867-3.857,3.734-3.978,3.898
		c-0.109,0.178-3.197,0.706-4.977,3.096c-1.776,2.39-3.895,2.823-3.895,2.823l-0.513-0.098c0,0-0.765-2.852-1.037-3.734
		c-0.282-0.882-0.24-1.452-0.24-1.452s1.687-1.669,1.659-2.346c-0.048-0.679-0.281-6.482-1.146-7.801
		c-0.864-1.326-1.275-3.055-1.446-3.768c-0.169-0.717-0.876-2.421-1.457-2.926c-0.588-0.508-2-1.591-2.176-1.866
		c-0.171-0.268-0.824-1.423-1.663-1.836c-0.826-0.4-0.646-0.979-1.194-1.553c-0.562-0.584-1.148-0.644-1.148-0.644
		s0.586,0.402,0.27,0.749l-0.229,0.254l-0.073,0.086c-0.138,0.129-1.148-0.103-1.628,0.061c-0.477,0.171-1.037,0.509-1.037,0.509
		s-0.658-0.741-1.857-0.338c-1.21,0.408,0.577-0.063,0.577,0.374c0,0.445-0.334,0.472-0.44,0.472c-0.105,0-1.003,0.886-1.597,0.85
		c-0.581-0.035-1.279,0.748-1.419,0.856l-1.199-0.108l-0.48-0.378l-0.043-0.042l0.074,0.318c0,0.233,0.341,0.344,0.034,0.808
		c-0.306,0.48-0.621,0.644-0.8,1.156c-0.166,0.509-0.785,1.465-1.003,1.296c-0.205-0.169-0.409-0.143-0.132-0.584
		c0.276-0.44,0.482-0.476,0.482-0.476s-0.964-0.168-0.896,1.09c0,0-1.45,0.309-1.484,0.955c0,0,0.448-0.512,0.93-0.084l-0.443,0.182
		c0,0-0.21,0.819-0.182,1.423c0.037,0.615-0.208,0.236-0.338,0.278c-0.133,0.027-0.933,2.197-0.933,2.915
		c0,0.449-0.17,0.395-0.293,0.232c0.058,0.268,0.069,0.628-0.096,0.748c-0.303,0.236,0.484,0.346,0.417,1.156
		c-0.065,0.816-0.932,1.501-0.932,1.501l0.687,0.134l0.113,0.3l0.199-0.068c0,0,0.461,1.456,0.489,2
		c0.038,0.55,0.136,0.098,0.175-0.03l0.04-0.144c0,0,0.675,1.573,2.439,3.467c1.77,1.902,5.293,4.07,5.569,5.299
		c0,0,0.89,5.057,0.411,5.765l-1.894-0.027l-0.162,0.799c0,0-0.406,0.682-0.751,0.99c-0.334,0.306-1.274,1.135-1.274,1.135
		l-1.175,0.843c-0.273,0.229-0.551,0.448-0.836,0.645c-3.154,2.172-6.564,3.448-8.939,6.117c-3.598,4.042-4.252,8.977-6.698,15.78
		c0.657,1.623,1.589,1.563,1.992,3.041l0.052,0.015l-2.28,14.44c-0.479,3.557-2.363,7.944-2.188,12.058
		c-0.546,6.476,0,17.142,0,17.142s0.343,5.038,0.755,6.848c0.404,1.811,2.974,4.464,2.974,4.464l4.943,1.532
		c0,0,0.767,0.231,0.833-0.448c0.048-0.678-0.354-1.133-0.354-1.133s0.057-0.565-0.177-0.843c-0.228-0.287-2.529-1.255-2.529-1.255
		l-0.699-0.786l-0.882-1.751c0-0.169-0.088-2.191,0.245-3.358c0,0,1.418,0.231,1.576,0.705c0.073,0.217,1.173,1.811,2.229,2.037
		c1.051,0.226,0.839-0.299,0.746-0.738c-0.285-0.952-1.803-2.837-1.938-3.618c-0.24-1.408-0.904-2.712-1.169-3.12
		c-0.496-0.609-1.141-0.981-1.141-0.981l-0.434-0.436c0,0,2.713-9.297,4.009-13.926c0.801-3.83,1.303-7.888,1.339-9.4
		c0,0,0.02-1.173,0.547-2.08C254.056,104.207,256.32,96.12,256.32,96.12"/>
</g>
</svg>
