<?xml version="1.0" encoding="UTF-8" standalone="no"?> <!-- Creator: CorelDRAW 2017 --> <svg xmlns:dc="http://purl.org/dc/elements/1.1/" xmlns:cc="http://creativecommons.org/ns#" xmlns:rdf="http://www.w3.org/1999/02/22-rdf-syntax-ns#" xmlns:svg="http://www.w3.org/2000/svg" xmlns="http://www.w3.org/2000/svg" xmlns:sodipodi="http://sodipodi.sourceforge.net/DTD/sodipodi-0.dtd" xmlns:inkscape="http://www.inkscape.org/namespaces/inkscape" xml:space="preserve" width="126.82464mm" height="98.039093mm" style="clip-rule:evenodd;fill-rule:evenodd;image-rendering:optimizeQuality;shape-rendering:geometricPrecision;text-rendering:geometricPrecision" viewBox="0 0 12682.464 9803.9093" id="svg2" inkscape:version="0.91 r13725" sodipodi:docname="tanker.svg"> <metadata id="metadata35"></metadata> <defs id="defs4"> <style type="text/css" id="style6"><![CDATA[ .str0 {stroke:#080808;stroke-width:200;stroke-miterlimit:22.9256} .str2 {stroke:black;stroke-width:250;stroke-miterlimit:22.9256} .str1 {stroke:#080808;stroke-width:20;stroke-miterlimit:22.9256} .fil3 {fill:none;fill-rule:nonzero} .fil1 {fill:#080808} .fil0 {fill:white} .fil2 {fill:black;fill-rule:nonzero} ]]></style> </defs> <g id="Слой_x0020_1" transform="translate(-3572.74,-6565.1404)"> <metadata id="CorelCorpID_0Corel-Layer"></metadata> <circle class="fil0 str0" cx="9943.3799" cy="9495.7305" r="2830.5901" id="circle10" style="fill:#ffffff;stroke:#080808;stroke-width:200;stroke-miterlimit:22.92560005"></circle> <path class="fil1" d="m 10302.69,10219.43 -111.46,105.81 -440.56,620.87 c -9.48,-287.16 39.47,-866.88 -39.05,-1102.15 -237.68,-79.33 -567.5,-29.57 -825.51,-29.57 77.01,-151.41 1221.71,-1625.19 1350.13,-1710.16 0,280.55 -48.95,860.27 29.57,1095.53 l 690.45,32.89 c -126.44,248.48 -606.59,776.99 -653.57,986.78 z M 7697.87,7834.21 7581,7929.81 c -111.01,204.95 -230.06,409.76 -323.73,615.77 -52.69,115.88 -171.55,628.67 -172.98,772.1 -4.49,451.87 83.63,1204.95 361.69,1547.99 l 111.43,118.83 c 4.51,126.99 156.76,320.5 248.61,398.69 l 119.48,96.35 c 39.32,142.18 407.22,386.76 569.73,480.9 200.86,116.35 540.94,255 768.44,311.66 275.74,68.69 702.07,99.96 1008.47,53.41 930.87,-141.41 1485.88,-579.78 2027.03,-1303.27 291.07,-389.12 527.43,-1221.03 448.48,-1739.08 -190.21,-1248.2 -792.78,-1980.12 -1932.38,-2433.01 -414.19,-164.61 -478.33,-140.74 -939.06,-141.04 -662.61,-0.44 -1090.18,177.24 -1647.3,557.9 -154.88,105.84 -504.26,398.13 -531.04,567.2 z" id="path12" inkscape:connector-curvature="0" style="fill:#080808"></path> <rect class="fil1 str1" x="8886.1104" y="9804.3604" width="859.97998" height="1152.48" id="rect14" style="fill:#080808;stroke:#080808;stroke-width:20;stroke-miterlimit:22.92560005"></rect> <rect class="fil1 str1" x="10226.22" y="8124.23" width="807.59998" height="1102.17" id="rect16" style="fill:#080808;stroke:#080808;stroke-width:20;stroke-miterlimit:22.92560005"></rect> <rect class="fil1 str1" transform="matrix(0.926046,0.645439,-0.66108,0.938174,10983.8,9207.4)" width="1205.59" height="1713.46" id="rect18" x="0" y="0" style="fill:#080808;stroke:#080808;stroke-width:20;stroke-miterlimit:22.92560005"></rect> <path class="fil2" d="m 4370.2,16244.05 0,-1885.26 333.15,0 0,1885.26 -333.15,0 z m -672.46,-1779.19 0,-274.83 1677.52,0 0,274.83 -1677.52,0 z" id="path20" inkscape:connector-curvature="0" style="fill:#000000;fill-rule:nonzero"></path> <path id="1" class="fil2" d="m 5408.17,16244.05 876.71,-2054.02 284.06,0 876.71,2054.02 -359.95,0 -659.07,-1657.2 -658.5,1657.2 -359.96,0 z m 404.04,-451.31 0,-274.83 1250.6,0 0,274.83 -1250.6,0 z" inkscape:connector-curvature="0" style="fill:#000000;fill-rule:nonzero"></path> <polygon id="2" class="fil2" points="9269.93,15764.78 9230.86,15801.42 9230.86,14190.03 9561.23,14190.03 9561.23,16244.05 9255.42,16244.05 8096.34,14693.41 8135.4,14656.28 8135.4,16244.05 7805.03,16244.05 7805.03,14190.03 8107.49,14190.03 " style="fill:#000000;fill-rule:nonzero"></polygon> <path id="3" class="fil2" d="m 10362.06,15774.9 49.11,-425.27 1058.07,-1159.6 401.8,0 -1508.98,1584.87 z m -212.63,469.15 0,-2054.02 333.73,0 0,2054.02 -333.73,0 z m 1413,0 -755.61,-1096.44 263.4,-210.23 900.71,1306.67 -408.5,0 z" inkscape:connector-curvature="0" style="fill:#000000;fill-rule:nonzero"></path> <path id="4" class="fil2" d="m 12297.96,16244.05 0,-2054.02 333.72,0 0,2054.02 -333.72,0 z m 161.84,0 0,-274.83 1365.56,0 0,274.83 -1365.56,0 z m 0,-882.36 0,-274.84 1185.31,0 0,274.84 -1185.31,0 z m 0,-896.83 0,-274.83 1365.56,0 0,274.83 -1365.56,0 z" inkscape:connector-curvature="0" style="fill:#000000;fill-rule:nonzero"></path> <path id="5" class="fil2" d="m 14444.8,15376.15 0,-274.83 876.14,0 c 77.58,0 139.53,-28.93 186.4,-87.27 46.87,-58.34 70.31,-135.01 70.31,-230.96 0,-95.95 -23.44,-172.61 -70.31,-230.96 -46.87,-58.34 -108.82,-87.27 -186.4,-87.27 l -876.14,0 0,-274.83 863.32,0 c 125.55,0 234.94,24.59 328.69,74.25 93.75,49.18 166.3,118.13 218.2,206.85 51.9,88.24 77.57,192.38 77.57,311.96 0,119.58 -25.67,223.72 -77.57,311.96 -51.9,88.72 -124.45,157.67 -218.2,206.85 -93.75,49.66 -203.14,74.25 -328.69,74.25 l -863.32,0 z m -145.66,867.9 0,-2054.02 333.73,0 0,2054.02 -333.73,0 z m 1337.67,0 -544.66,-931.54 332.04,-65.09 608.28,996.63 -395.66,0 z" inkscape:connector-curvature="0" style="fill:#000000;fill-rule:nonzero"></path> <path id="6" class="fil3 str2" d="m 4370.2,16244.05 0,-1885.26 333.15,0 0,1885.26 -333.15,0 z m -672.46,-1779.19 0,-274.83 1677.52,0 0,274.83 -1677.52,0 z" inkscape:connector-curvature="0" style="fill:none;fill-rule:nonzero;stroke:#000000;stroke-width:250;stroke-miterlimit:22.92560005"></path> <path id="7" class="fil3 str2" d="m 5408.17,16244.05 876.71,-2054.02 284.06,0 876.71,2054.02 -359.95,0 -659.07,-1657.2 -658.5,1657.2 -359.96,0 z m 404.04,-451.31 0,-274.83 1250.6,0 0,274.83 -1250.6,0 z" inkscape:connector-curvature="0" style="fill:none;fill-rule:nonzero;stroke:#000000;stroke-width:250;stroke-miterlimit:22.92560005"></path> <polygon id="8" class="fil3 str2" points="9269.93,15764.78 9230.86,15801.42 9230.86,14190.03 9561.23,14190.03 9561.23,16244.05 9255.42,16244.05 8096.34,14693.41 8135.4,14656.28 8135.4,16244.05 7805.03,16244.05 7805.03,14190.03 8107.49,14190.03 " style="fill:none;fill-rule:nonzero;stroke:#000000;stroke-width:250;stroke-miterlimit:22.92560005"></polygon> <path id="9" class="fil3 str2" d="m 10362.06,15774.9 49.11,-425.27 1058.07,-1159.6 401.8,0 -1508.98,1584.87 z m -212.63,469.15 0,-2054.02 333.73,0 0,2054.02 -333.73,0 z m 1413,0 -755.61,-1096.44 263.4,-210.23 900.71,1306.67 -408.5,0 z" inkscape:connector-curvature="0" style="fill:none;fill-rule:nonzero;stroke:#000000;stroke-width:250;stroke-miterlimit:22.92560005"></path> <path id="10" class="fil3 str2" d="m 12297.96,16244.05 0,-2054.02 333.72,0 0,2054.02 -333.72,0 z m 161.84,0 0,-274.83 1365.56,0 0,274.83 -1365.56,0 z m 0,-882.36 0,-274.84 1185.31,0 0,274.84 -1185.31,0 z m 0,-896.83 0,-274.83 1365.56,0 0,274.83 -1365.56,0 z" inkscape:connector-curvature="0" style="fill:none;fill-rule:nonzero;stroke:#000000;stroke-width:250;stroke-miterlimit:22.92560005"></path> <path id="11" class="fil3 str2" d="m 14444.8,15376.15 0,-274.83 876.14,0 c 77.58,0 139.53,-28.93 186.4,-87.27 46.87,-58.34 70.31,-135.01 70.31,-230.96 0,-95.95 -23.44,-172.61 -70.31,-230.96 -46.87,-58.34 -108.82,-87.27 -186.4,-87.27 l -876.14,0 0,-274.83 863.32,0 c 125.55,0 234.94,24.59 328.69,74.25 93.75,49.18 166.3,118.13 218.2,206.85 51.9,88.24 77.57,192.38 77.57,311.96 0,119.58 -25.67,223.72 -77.57,311.96 -51.9,88.72 -124.45,157.67 -218.2,206.85 -93.75,49.66 -203.14,74.25 -328.69,74.25 l -863.32,0 z m -145.66,867.9 0,-2054.02 333.73,0 0,2054.02 -333.73,0 z m 1337.67,0 -544.66,-931.54 332.04,-65.09 608.28,996.63 -395.66,0 z" inkscape:connector-curvature="0" style="fill:none;fill-rule:nonzero;stroke:#000000;stroke-width:250;stroke-miterlimit:22.92560005"></path> </g> </svg> 